<svg version="1.1" id="Layer_1" xmlns="http://www.w3.org/2000/svg" xmlns:xlink="http://www.w3.org/1999/xlink" x="0px" y="0px"
	 width="100%" viewBox="0 0 411 411" enable-background="new 0 0 411 411" xml:space="preserve">
<path fill="#FDFDFD" opacity="1.000000" stroke="none" 
	d="
M178.000000,1.000003 
	C196.687561,1.000000 215.375122,1.000000 234.229309,1.363566 
	C235.066071,2.144698 235.686508,2.782320 236.413879,2.946704 
	C246.764877,5.285975 257.256897,7.106137 267.466553,9.944664 
	C290.164246,16.255178 310.599457,27.345100 329.509857,41.205139 
	C344.399506,52.118237 357.600433,64.905090 368.857300,79.560303 
	C380.169830,94.288055 389.660370,110.146172 396.731873,127.358345 
	C403.104431,142.869431 407.920349,158.831863 410.075195,175.531708 
	C410.190094,176.422424 411.334717,177.180283 412.000000,178.000000 
	C412.000000,196.687561 412.000000,215.375122 411.636414,234.229309 
	C410.855286,235.066132 410.217682,235.686584 410.053284,236.413986 
	C407.713989,246.764984 405.893799,257.256989 403.055298,267.466644 
	C396.744781,290.164337 385.654907,310.599518 371.794830,329.509888 
	C360.881683,344.399475 348.094940,357.600525 333.439667,368.857330 
	C318.711884,380.169830 302.853790,389.660431 285.641571,396.731842 
	C270.130493,403.104340 254.168121,407.920380 237.468277,410.075165 
	C236.577560,410.190063 235.819702,411.334717 235.000000,412.000000 
	C216.312439,412.000000 197.624878,412.000000 178.770691,411.636414 
	C177.933899,410.855286 177.313431,410.217712 176.586060,410.053314 
	C166.235031,407.714081 155.743042,405.893829 145.533356,403.055298 
	C122.835701,396.744781 102.400414,385.654968 83.490074,371.794830 
	C68.600533,360.881653 55.399406,348.095032 44.142666,333.439636 
	C32.830246,318.711792 23.339554,302.853790 16.268127,285.641571 
	C9.895588,270.130493 5.079587,254.168106 2.924885,237.468231 
	C2.809961,236.577530 1.665302,235.819687 1.000003,235.000000 
	C1.000000,216.312439 1.000000,197.624878 1.363566,178.770691 
	C2.144697,177.933929 2.782325,177.313507 2.946706,176.586136 
	C5.285971,166.235138 7.106125,155.743118 9.944659,145.533463 
	C16.255154,122.835777 27.345110,102.400581 41.205135,83.490166 
	C52.118210,68.600525 64.904961,55.399502 79.560280,44.142735 
	C94.288116,32.830273 110.146156,23.339600 127.358368,16.268131 
	C142.869446,9.895557 158.831894,5.079747 175.531723,2.924828 
	C176.422455,2.809891 177.180298,1.665280 178.000000,1.000003 
M243.225677,288.179443 
	C242.589035,287.180267 241.952408,286.181122 240.636795,284.116364 
	C239.733688,290.716614 238.940308,295.996368 238.422882,301.303070 
	C238.382477,301.717499 240.271194,302.320068 241.156586,302.779755 
	C241.156586,298.451080 241.156586,294.857849 241.818695,291.013580 
	C244.328445,294.462433 246.838196,297.911316 249.347946,301.360168 
	C249.693863,301.264557 250.039764,301.168945 250.385681,301.073334 
	C250.385681,297.671600 250.385681,294.269836 250.385681,290.868103 
	C250.139999,290.837311 249.894302,290.806519 249.648621,290.775726 
	C249.302444,292.655304 248.956268,294.534882 248.466064,297.196442 
	C246.470993,293.893524 244.959366,291.390961 243.225677,288.179443 
M92.020271,292.207550 
	C89.920174,289.777405 86.830467,290.281769 85.516266,293.074768 
	C87.595276,293.074768 89.762352,293.074768 91.962303,293.941864 
	C91.357803,295.934509 91.293449,299.105530 90.039101,299.680511 
	C87.212624,300.976135 86.173668,298.439270 85.635880,295.922485 
	C85.571304,295.620239 84.187073,295.599976 82.679169,295.305359 
	C83.895714,297.894531 84.449066,300.000916 85.724548,301.487793 
	C86.712692,302.639679 89.318253,304.014038 89.960876,303.553558 
	C91.967117,302.115967 93.947685,300.081635 94.849068,297.840576 
	C95.569969,296.048218 95.932236,292.883942 92.020271,292.207550 
M331.273376,296.935364 
	C330.881683,297.855103 329.980713,299.441010 330.177307,299.591278 
	C332.096588,301.058533 334.458282,303.631195 336.194702,303.296753 
	C339.618866,302.637146 341.989532,299.526367 340.665802,295.764526 
	C339.786530,293.265869 337.491364,291.284546 335.947754,288.992371 
	C335.196808,287.877258 334.715637,286.580444 334.112366,285.365845 
	C334.572296,285.168579 335.032227,284.971313 335.492188,284.774048 
	C336.517792,285.851776 337.543396,286.929504 338.569000,288.007233 
	C339.027069,287.644562 339.485138,287.281860 339.943237,286.919159 
	C338.773132,285.439575 337.828888,283.610382 336.328949,282.641327 
	C335.669556,282.215332 332.834106,283.474030 332.795319,284.083038 
	C332.673401,285.995728 332.999908,288.192871 333.925537,289.847534 
	C334.935913,291.653778 337.246582,292.758423 338.160431,294.584320 
	C338.827271,295.916656 338.528107,298.076019 337.922211,299.567078 
	C337.583527,300.400665 335.168732,301.353607 334.688477,300.977386 
	C333.480255,300.030884 332.839386,298.360138 332.271484,296.870941 
	C332.193329,296.927460 332.115173,296.984009 331.273376,296.935364 
M111.199829,289.959869 
	C108.851685,291.408905 105.603310,292.363770 104.448280,294.467773 
	C103.568817,296.069763 104.603348,300.249298 106.128403,301.263031 
	C108.093018,302.568909 111.397781,301.858612 114.821617,301.869781 
	C115.099762,295.583344 115.505699,289.296539 115.488327,283.010925 
	C115.486244,282.256653 113.186714,281.508698 111.963051,280.764496 
	C111.963051,284.462616 111.963051,287.112549 111.199829,289.959869 
M265.070190,77.224091 
	C263.568451,73.500298 260.862183,72.122749 256.172028,72.983498 
	C248.489777,73.477547 245.256424,78.985817 245.130463,92.149269 
	C243.511322,92.149269 241.885086,92.154037 240.258881,92.148521 
	C225.055038,92.097008 211.096069,96.510574 197.782745,103.601807 
	C195.007980,105.079750 191.614960,106.077827 188.493439,106.113213 
	C168.507614,106.339783 148.518021,106.231201 128.529678,106.245842 
	C125.509407,106.248055 121.899857,105.916573 121.995117,110.311615 
	C122.089630,114.671867 125.753220,114.189400 128.725677,114.208145 
	C135.054947,114.248070 141.384705,114.242546 147.714142,114.222305 
	C151.107880,114.211456 154.538834,114.597816 154.387863,118.955788 
	C154.246857,123.025993 150.901138,123.107399 147.725388,123.095451 
	C134.733292,123.046608 121.740868,123.081192 108.748619,123.058090 
	C105.770515,123.052788 102.580902,123.112473 102.649948,127.092934 
	C102.717720,130.999298 105.871521,131.065948 108.863503,131.052567 
	C117.858101,131.012329 126.853088,131.061264 135.847778,131.031143 
	C139.034439,131.020477 141.518051,132.456726 140.777130,135.631104 
	C140.390289,137.288513 137.566025,139.417770 135.742935,139.517883 
	C128.104736,139.937332 120.428802,139.657272 112.766693,139.658569 
	C107.770073,139.659393 102.740631,139.393906 97.796997,139.918121 
	C96.328331,140.073868 94.377953,142.348846 94.035912,143.949326 
	C93.833191,144.897919 96.156097,146.791595 97.692673,147.576538 
	C98.891968,148.189209 100.629509,147.771729 102.127869,147.771927 
	C118.951447,147.774155 135.775024,147.761871 152.598587,147.775314 
	C154.322403,147.776703 156.046112,147.919571 158.198318,148.015961 
	C157.597168,149.919403 157.213501,151.164154 156.810333,152.402573 
	C156.398529,153.667587 155.926987,154.914429 155.552307,156.190018 
	C154.150208,160.963318 154.726669,161.824020 159.720688,161.826096 
	C204.859604,161.844788 249.998550,161.798965 295.137329,161.872925 
	C299.292542,161.879745 300.778992,160.001236 300.866577,156.159210 
	C301.311432,136.649521 295.567871,119.563957 280.283630,106.821968 
	C274.535004,102.029526 267.586700,98.676163 261.000519,94.551010 
	C264.166656,89.736824 268.912018,84.865105 265.070190,77.224091 
M207.500000,168.964478 
	C188.840988,168.968567 170.181778,168.927994 151.523056,169.002075 
	C145.370605,169.026489 140.431366,173.552414 140.413788,178.850571 
	C140.397659,183.707077 143.549301,185.820038 150.890106,185.825882 
	C202.035995,185.866669 253.181900,185.906738 304.327789,185.931946 
	C311.990875,185.935715 319.655914,185.936737 327.315369,185.748322 
	C328.622559,185.716171 330.280121,185.019196 331.060608,184.052155 
	C331.531311,183.468903 331.023865,181.337997 330.271667,180.640259 
	C319.862762,170.984863 308.497650,164.044815 293.372040,168.229538 
	C291.325989,168.795593 289.107361,168.933380 286.968048,168.937103 
	C260.812103,168.982330 234.656036,168.965439 207.500000,168.964478 
M167.129730,205.185745 
	C151.448242,205.573013 135.676254,204.956512 120.312126,209.271011 
	C151.943542,213.689255 183.496918,213.980392 215.020248,210.175888 
	C215.053864,209.515732 215.087494,208.855591 215.121109,208.195435 
	C211.000259,207.478867 206.879410,206.762299 202.838898,206.059708 
	C205.255722,201.534485 207.496399,197.339096 209.737076,193.143707 
	C209.334518,192.844666 208.931961,192.545624 208.529419,192.246582 
	C205.398712,193.321716 201.444138,189.915741 198.921600,194.675125 
	C195.825363,200.516983 191.447098,202.884369 186.081696,202.203766 
	C180.465530,201.491348 179.163162,197.265121 178.490402,192.546631 
	C175.336212,192.546631 172.415390,192.546631 168.577576,192.546631 
	C169.183990,196.156082 169.367645,199.453079 170.355835,202.488113 
	C171.275253,205.311935 169.865723,205.204071 167.129730,205.185745 
M289.100739,192.250595 
	C286.850464,192.250595 284.600220,192.250595 281.526093,192.250595 
	C282.295502,197.036453 282.914978,200.889816 283.581421,205.035126 
	C267.169312,205.725220 250.523560,204.752884 234.347321,209.267044 
	C265.969055,213.700912 297.525635,213.976913 329.066010,210.164032 
	C329.118958,209.530807 329.171906,208.897598 329.224854,208.264374 
	C324.733093,207.459488 320.241302,206.654587 316.001495,205.894836 
	C318.403412,201.339813 320.558044,197.253784 322.867706,192.873749 
	C316.875916,191.614380 313.010132,191.628876 310.319092,197.172424 
	C308.242371,201.450470 303.563232,202.944290 298.670685,202.092117 
	C294.263428,201.324463 292.261383,198.394547 291.805969,194.076035 
	C291.736298,193.415482 290.591370,192.868317 289.100739,192.250595 
M251.166931,268.900879 
	C258.735748,266.403748 262.273041,257.595734 259.074768,249.209885 
	C256.496490,242.449539 251.648880,241.381714 242.247299,244.247589 
	C238.285065,243.877914 234.322815,243.508240 230.345551,243.137161 
	C230.345551,254.280914 230.345551,264.368164 230.345551,274.581665 
	C234.386826,274.581665 238.101990,274.581665 241.909134,274.581665 
	C242.076355,271.659363 242.222794,269.100372 242.371399,266.503326 
	C245.383636,267.436127 247.870056,268.206116 251.166931,268.900879 
M62.348537,236.739807 
	C52.916489,237.155441 52.915958,237.155273 50.037865,245.981232 
	C49.677776,247.085464 49.327030,248.192749 48.971828,249.298584 
	C46.920391,255.685287 44.868904,262.071991 42.686115,268.867523 
	C45.952904,268.867523 48.434406,269.044525 50.872456,268.795715 
	C52.165337,268.663757 54.354343,267.951172 54.472431,267.228455 
	C55.112999,263.308044 57.870472,263.902496 60.496769,263.809052 
	C63.240639,263.711487 65.902412,263.378510 66.281136,267.334137 
	C66.334038,267.886627 68.067421,268.615570 69.059280,268.677155 
	C71.958572,268.857300 74.876259,268.741211 78.552139,268.741211 
	C75.499931,259.197876 72.547447,250.609863 70.059387,241.889343 
	C68.971725,238.077164 67.196861,236.151154 62.348537,236.739807 
M164.983459,242.656235 
	C164.983459,251.375229 164.983459,260.094238 164.983459,268.411194 
	C173.518341,268.411194 181.131577,268.411194 188.753708,268.411194 
	C188.753708,265.704285 188.753708,263.480957 188.753708,260.925690 
	C185.398438,260.925690 182.388504,261.184357 179.465134,260.794220 
	C178.346710,260.645020 177.426285,259.012024 176.415634,258.055176 
	C177.475479,257.157379 178.443008,255.665787 179.614120,255.483749 
	C182.157547,255.088394 184.804916,255.361816 187.904861,255.361816 
	C187.655457,252.943497 187.478119,251.223892 187.259125,249.100494 
	C183.389740,249.100494 179.976654,249.100494 176.019226,249.100494 
	C176.390121,247.327606 176.476151,245.107193 176.930634,245.028992 
	C180.702927,244.380173 184.543259,244.127060 188.409882,243.749725 
	C188.409882,241.339615 188.409882,239.275558 188.409882,237.289612 
	C180.485184,237.289612 172.924637,237.289612 165.189438,237.289612 
	C165.102997,239.091309 165.040482,240.394058 164.983459,242.656235 
M37.956837,236.827408 
	C30.711557,236.827408 23.466278,236.827408 16.175159,236.827408 
	C16.175159,248.062668 16.175159,258.278748 16.175159,268.376740 
	C24.216850,268.376740 31.936680,268.376740 39.611626,268.376740 
	C39.611626,265.658386 39.611626,263.448914 39.611626,260.942108 
	C36.222057,260.942108 33.214020,261.200287 30.292265,260.810974 
	C29.173325,260.661865 28.251530,259.033203 27.239897,258.078766 
	C28.284517,257.168518 29.234127,255.654022 30.393213,255.471771 
	C32.933670,255.072342 35.580280,255.348068 38.664165,255.348068 
	C38.439293,252.968918 38.275524,251.236206 38.072124,249.084198 
	C34.272758,249.084198 30.873209,249.084198 26.821892,249.084198 
	C28.335325,240.137634 35.584740,246.614929 39.491325,242.898300 
	C39.323277,241.497009 39.060486,239.305664 37.956837,236.827408 
M124.777443,264.149017 
	C119.986374,260.636200 114.765060,261.683807 108.693878,262.132233 
	C112.972008,268.610687 118.931618,268.855713 124.616440,268.988129 
	C130.472626,269.124512 136.482651,268.621796 140.029327,262.824951 
	C142.638443,258.560516 140.338181,253.878113 135.007538,252.666962 
	C131.946838,251.971542 128.697464,252.078995 125.662437,251.312546 
	C124.524292,251.025131 123.752609,249.286545 122.813850,248.209579 
	C124.085785,247.967804 125.390213,247.413712 126.623657,247.542023 
	C130.528168,247.948151 134.406128,248.609406 138.294342,249.171982 
	C138.534531,248.422897 138.774719,247.673813 139.014908,246.924728 
	C136.704300,245.718689 134.478012,243.733093 132.065186,243.472122 
	C127.333069,242.960297 122.443611,242.979248 117.717384,243.567215 
	C111.592163,244.329224 108.876991,247.120056 109.093475,251.376297 
	C109.368195,256.777771 113.407333,257.944183 117.689064,258.684967 
	C120.307007,259.137878 122.980583,259.315948 125.561821,259.910095 
	C126.519020,260.130402 127.283897,261.186279 128.136475,261.861145 
	C127.295609,262.636047 126.454750,263.410919 124.777443,264.149017 
M382.638489,242.972336 
	C377.864380,243.406174 373.029877,243.514160 368.336426,244.383484 
	C364.965088,245.007965 362.920410,247.528305 362.962677,251.249939 
	C363.005066,254.983719 365.109528,257.169891 368.528564,257.958252 
	C371.925415,258.741486 375.438538,259.016113 378.842957,259.773285 
	C379.979675,260.026093 381.003662,261.006439 381.923126,261.828735 
	C382.106415,261.992645 381.650848,263.420593 381.367096,263.464020 
	C379.976196,263.677063 378.504913,263.848022 377.133179,263.615021 
	C372.628143,262.849731 368.153931,261.903137 362.509125,260.799713 
	C363.528534,263.187195 363.675720,264.043274 364.164642,264.598328 
	C369.413361,270.556641 387.123199,270.580383 392.486938,264.678711 
	C396.845154,259.883301 395.019928,253.993484 388.596680,252.588455 
	C385.683807,251.951309 382.594757,252.082703 379.712830,251.358887 
	C378.493591,251.052673 377.602020,249.441833 376.561523,248.423950 
	C377.952026,248.165451 379.369385,247.592590 380.727936,247.708542 
	C384.512909,248.031555 388.273499,248.640320 393.133636,249.279602 
	C390.635803,243.952332 387.126953,243.373138 382.638489,242.972336 
M339.715881,269.070862 
	C344.523499,268.055420 349.650909,267.731232 353.997772,265.720001 
	C356.035767,264.777069 357.798096,260.385498 357.406281,257.918854 
	C357.074402,255.829407 353.703644,253.716202 351.231384,252.620361 
	C348.911591,251.592117 345.967834,252.067383 343.375793,251.517456 
	C342.056488,251.237564 340.854156,250.227585 339.730133,249.374741 
	C339.533722,249.225723 339.970551,247.695343 340.146881,247.688980 
	C341.492218,247.640442 342.846649,247.798386 344.196045,247.917236 
	C347.939148,248.246964 351.681183,248.588852 355.423676,248.925934 
	C355.588715,248.274353 355.753784,247.622757 355.918854,246.971176 
	C354.020874,245.834305 352.161133,243.809128 350.217773,243.725403 
	C344.135986,243.463379 337.985809,243.593613 331.935394,244.248779 
	C328.336426,244.638489 326.033844,247.365356 326.063171,251.253326 
	C326.092865,255.184021 328.527557,257.342133 332.139771,258.117523 
	C335.226471,258.780151 338.417847,258.965759 341.491974,259.671387 
	C342.791687,259.969727 343.953186,261.003265 345.060272,261.854980 
	C345.214966,261.973969 344.766174,263.434448 344.478241,263.477295 
	C343.084564,263.684540 341.612335,263.843903 340.237610,263.610229 
	C335.741394,262.846100 331.275452,261.903778 326.797852,261.029968 
	C326.643188,261.651703 326.488525,262.273407 326.333862,262.895142 
	C328.836243,268.005798 334.137177,267.920868 339.715881,269.070862 
M117.500175,90.994308 
	C111.509163,90.994194 105.518150,90.995483 99.527138,90.993355 
	C96.728294,90.992363 93.804268,91.158188 93.736916,94.845665 
	C93.663094,98.887405 96.728058,98.932930 99.729553,98.926674 
	C114.873260,98.895119 130.017075,98.911720 145.160843,98.912140 
	C151.650986,98.912315 158.141296,98.886864 164.631195,98.928017 
	C167.458969,98.945953 170.416351,98.784515 170.463348,95.158730 
	C170.513443,91.294594 167.482925,90.900597 164.430283,90.998314 
	C163.931549,91.014282 163.431854,90.999588 162.932602,90.999512 
	C148.121796,90.997208 133.310974,90.994949 117.500175,90.994308 
M207.593933,259.533966 
	C207.926407,258.764099 208.258865,257.994263 209.102783,256.040131 
	C210.346497,260.961456 211.264038,264.592072 212.113297,267.952484 
	C216.378311,267.952484 220.224548,267.952484 224.863358,267.952484 
	C220.194870,259.654266 217.490128,251.813736 224.884338,243.529938 
	C219.736526,243.529938 215.995789,243.529938 212.122971,243.529938 
	C211.345428,246.490067 210.618362,249.258057 209.891281,252.026062 
	C209.550415,252.010986 209.209549,251.995926 208.868668,251.980865 
	C208.286453,249.153259 207.704224,246.325653 207.150253,243.635284 
	C202.968414,243.635284 199.238983,243.635284 193.914642,243.635284 
	C201.549561,252.315704 196.163406,260.093994 193.693039,268.238586 
	C198.119949,268.238586 201.880783,268.238586 205.975754,268.238586 
	C206.470322,265.505066 206.939407,262.912354 207.593933,259.533966 
M301.053986,243.571060 
	C293.324310,246.729630 290.541656,251.421509 291.888031,259.025879 
	C292.995667,265.281952 298.382172,268.905945 306.582428,268.912140 
	C314.889435,268.918427 319.199463,266.169495 320.471893,259.749023 
	C315.421509,259.624237 310.126984,257.444122 305.782043,264.230408 
	C304.805939,260.914307 304.209503,258.887970 303.337860,255.926849 
	C309.767639,255.926849 315.273773,255.926849 320.803864,255.926849 
	C320.133698,246.268066 312.112640,241.260910 301.053986,243.571060 
M85.588737,267.641327 
	C89.547935,267.957855 93.507126,268.274353 98.045418,268.637177 
	C98.045418,260.145203 98.045418,252.767853 98.045418,245.352310 
	C100.691521,245.213028 102.797684,245.102158 105.004379,244.985992 
	C105.004379,242.311783 105.004379,239.931961 105.004379,237.578461 
	C95.882568,237.578461 87.138268,237.578461 78.248611,237.578461 
	C78.248611,240.304657 78.248611,242.694763 78.248611,245.029526 
	C85.882935,246.293152 85.882202,246.293137 85.665443,254.353806 
	C85.553894,258.502228 85.445488,262.650696 85.588737,267.641327 
M280.051147,258.170624 
	C282.094299,256.285797 284.137451,254.400955 286.916321,251.837418 
	C286.916321,249.687714 286.916321,246.273788 286.916321,240.934402 
	C282.889038,244.001251 279.960602,246.231323 277.164795,248.360413 
	C274.647278,242.724106 272.679535,241.942627 265.566437,244.178711 
	C265.566437,252.100937 265.566437,260.005219 265.566437,268.146484 
	C270.265167,268.146484 274.641296,268.146484 279.221405,268.146484 
	C279.447449,264.916321 279.653839,261.966736 280.051147,258.170624 
M133.815338,162.419754 
	C136.313004,162.420135 138.994888,162.982407 141.250076,162.243118 
	C143.054337,161.651642 144.339874,159.477768 145.855637,158.006195 
	C144.388763,156.682648 143.063278,154.479141 141.426010,154.216080 
	C137.857193,153.642685 134.078186,153.706131 130.490952,154.231842 
	C128.942459,154.458771 126.695412,156.354492 126.523102,157.714737 
	C126.353035,159.057266 128.206146,160.905228 129.559143,162.088333 
	C130.254654,162.696503 131.794495,162.339142 133.815338,162.419754 
M90.933113,114.310333 
	C94.093590,114.278389 97.360641,113.989403 97.082062,109.767250 
	C96.824638,105.865662 93.567955,106.032791 90.692101,106.047272 
	C87.713554,106.062263 84.651947,105.673645 81.790314,106.260071 
	C80.283661,106.568825 77.929497,108.765190 78.085236,109.784096 
	C78.333321,111.407219 80.124657,113.605904 81.683632,114.035271 
	C84.305092,114.757278 87.256378,114.281807 90.933113,114.310333 
M190.526947,90.828102 
	C188.542679,90.881577 186.342194,90.422867 184.638916,91.141937 
	C183.131317,91.778412 181.236755,93.733101 181.247574,95.092041 
	C181.257996,96.405640 183.368149,98.658295 184.756897,98.825035 
	C188.833954,99.314529 193.043152,99.255585 197.130142,98.791313 
	C198.444260,98.642029 200.572968,96.481628 200.485260,95.389320 
	C200.362747,93.863167 198.792114,91.867455 197.325180,91.190247 
	C195.665100,90.423874 193.434280,90.893860 190.526947,90.828102 
M67.322540,303.195648 
	C69.041817,302.799469 70.991524,302.790405 72.435097,301.931061 
	C76.080856,299.760742 76.061295,295.900574 73.848541,293.391479 
	C72.336395,291.676819 68.258507,290.681030 66.170807,291.503632 
	C64.484505,292.168060 63.481766,295.991547 63.315563,298.489441 
	C63.232323,299.740479 65.693268,301.160828 67.322540,303.195648 
M143.687836,290.664490 
	C143.909744,288.264587 144.131638,285.864655 144.385834,283.115417 
	C143.238663,283.212677 142.223190,283.298767 141.506958,283.359497 
	C141.506958,289.910645 141.506958,296.083282 141.506958,302.559692 
	C142.361511,302.559692 143.389496,302.559692 143.681473,302.559692 
	C143.681473,298.702118 143.681473,295.151428 143.687836,290.664490 
M155.761917,291.803741 
	C155.761917,295.345337 155.761917,298.886932 155.761917,303.199646 
	C160.198502,300.339233 154.289948,287.819000 166.419724,294.144928 
	C163.376266,288.451080 159.597046,290.159027 155.761917,291.803741 
M226.211777,285.396973 
	C225.646820,284.511810 225.081879,283.626678 224.207733,282.257080 
	C224.207733,289.671753 224.207733,295.675598 224.207733,301.679443 
	C224.807114,301.669128 225.406494,301.658813 226.005875,301.648468 
	C226.005875,296.508881 226.005875,291.369263 226.211777,285.396973 
M270.367218,302.813843 
	C273.841309,301.659821 274.895325,299.150665 274.640228,295.291016 
	C270.147583,301.742920 270.147583,301.742920 265.668152,296.224518 
	C265.284241,296.538391 264.900330,296.852264 264.516388,297.166138 
	C266.222168,299.050232 267.927917,300.934296 270.367218,302.813843 
M293.460236,300.710541 
	C293.460236,295.592834 293.460236,290.475128 293.460236,285.357452 
	C293.165375,285.364227 292.870483,285.371033 292.575623,285.377808 
	C292.575623,290.477936 292.575623,295.578033 293.460236,300.710541 
M198.734344,288.830597 
	C197.352234,288.619965 195.970108,288.409332 194.587997,288.198700 
	C194.574539,288.686462 194.561096,289.174194 194.547638,289.661926 
	C195.881058,289.587067 197.214478,289.512207 198.734344,288.830597 
M199.470551,291.601654 
	C199.470551,291.601654 199.566147,291.427032 199.566147,291.427032 
	C199.566147,291.427032 199.383331,291.453827 199.470551,291.601654 
z"/>
<path fill="#000000" opacity="1.000000" stroke="none" 
	d="
M177.531342,1.000003 
	C177.180298,1.665280 176.422455,2.809891 175.531723,2.924828 
	C158.831894,5.079747 142.869446,9.895557 127.358368,16.268131 
	C110.146156,23.339600 94.288116,32.830273 79.560280,44.142735 
	C64.904961,55.399502 52.118210,68.600525 41.205135,83.490166 
	C27.345110,102.400581 16.255154,122.835777 9.944659,145.533463 
	C7.106125,155.743118 5.285971,166.235138 2.946706,176.586136 
	C2.782325,177.313507 2.144697,177.933929 1.363566,178.302032 
	C1.000000,119.072975 1.000000,60.145954 1.000000,1.000000 
	C59.687378,1.000000 118.375031,1.000000 177.531342,1.000003 
z"/>
<path fill="#000000" opacity="1.000000" stroke="none" 
	d="
M412.000000,177.531342 
	C411.334717,177.180283 410.190094,176.422424 410.075195,175.531708 
	C407.920349,158.831863 403.104431,142.869431 396.731873,127.358345 
	C389.660370,110.146172 380.169830,94.288055 368.857300,79.560303 
	C357.600433,64.905090 344.399506,52.118237 329.509857,41.205139 
	C310.599457,27.345100 290.164246,16.255178 267.466553,9.944664 
	C257.256897,7.106137 246.764877,5.285975 236.413879,2.946704 
	C235.686508,2.782320 235.066071,2.144698 234.697968,1.363566 
	C293.927002,1.000000 352.854034,1.000000 412.000000,1.000000 
	C412.000000,59.687378 412.000000,118.375031 412.000000,177.531342 
z"/>
<path fill="#000000" opacity="1.000000" stroke="none" 
	d="
M235.468658,412.000000 
	C235.819702,411.334717 236.577560,410.190063 237.468277,410.075165 
	C254.168121,407.920380 270.130493,403.104340 285.641571,396.731842 
	C302.853790,389.660431 318.711884,380.169830 333.439667,368.857330 
	C348.094940,357.600525 360.881683,344.399475 371.794830,329.509888 
	C385.654907,310.599518 396.744781,290.164337 403.055298,267.466644 
	C405.893799,257.256989 407.713989,246.764984 410.053284,236.413986 
	C410.217682,235.686584 410.855286,235.066132 411.636414,234.697968 
	C412.000000,293.927032 412.000000,352.854034 412.000000,412.000000 
	C353.312622,412.000000 294.624969,412.000000 235.468658,412.000000 
z"/>
<path fill="#000000" opacity="1.000000" stroke="none" 
	d="
M1.000003,235.468658 
	C1.665302,235.819687 2.809961,236.577530 2.924885,237.468231 
	C5.079587,254.168106 9.895588,270.130493 16.268127,285.641571 
	C23.339554,302.853790 32.830246,318.711792 44.142666,333.439636 
	C55.399406,348.095032 68.600533,360.881653 83.490074,371.794830 
	C102.400414,385.654968 122.835701,396.744781 145.533356,403.055298 
	C155.743042,405.893829 166.235031,407.714081 176.586060,410.053314 
	C177.313431,410.217712 177.933899,410.855286 178.302032,411.636414 
	C119.072975,412.000000 60.145954,412.000000 1.000000,412.000000 
	C1.000000,353.312622 1.000000,294.624969 1.000003,235.468658 
z"/>
<path fill="#184036" opacity="1.000000" stroke="none" 
	d="
M264.957306,77.961548 
	C268.912018,84.865105 264.166656,89.736824 261.000519,94.551010 
	C267.586700,98.676163 274.535004,102.029526 280.283630,106.821968 
	C295.567871,119.563957 301.311432,136.649521 300.866577,156.159210 
	C300.778992,160.001236 299.292542,161.879745 295.137329,161.872925 
	C249.998550,161.798965 204.859604,161.844788 159.720688,161.826096 
	C154.726669,161.824020 154.150208,160.963318 155.552307,156.190018 
	C155.926987,154.914429 156.398529,153.667587 156.810333,152.402573 
	C157.213501,151.164154 157.597168,149.919403 158.198318,148.015961 
	C156.046112,147.919571 154.322403,147.776703 152.598587,147.775314 
	C135.775024,147.761871 118.951447,147.774155 102.127869,147.771927 
	C100.629509,147.771729 98.891968,148.189209 97.692673,147.576538 
	C96.156097,146.791595 93.833191,144.897919 94.035912,143.949326 
	C94.377953,142.348846 96.328331,140.073868 97.796997,139.918121 
	C102.740631,139.393906 107.770073,139.659393 112.766693,139.658569 
	C120.428802,139.657272 128.104736,139.937332 135.742935,139.517883 
	C137.566025,139.417770 140.390289,137.288513 140.777130,135.631104 
	C141.518051,132.456726 139.034439,131.020477 135.847778,131.031143 
	C126.853088,131.061264 117.858101,131.012329 108.863503,131.052567 
	C105.871521,131.065948 102.717720,130.999298 102.649948,127.092934 
	C102.580902,123.112473 105.770515,123.052788 108.748619,123.058090 
	C121.740868,123.081192 134.733292,123.046608 147.725388,123.095451 
	C150.901138,123.107399 154.246857,123.025993 154.387863,118.955788 
	C154.538834,114.597816 151.107880,114.211456 147.714142,114.222305 
	C141.384705,114.242546 135.054947,114.248070 128.725677,114.208145 
	C125.753220,114.189400 122.089630,114.671867 121.995117,110.311615 
	C121.899857,105.916573 125.509407,106.248055 128.529678,106.245842 
	C148.518021,106.231201 168.507614,106.339783 188.493439,106.113213 
	C191.614960,106.077827 195.007980,105.079750 197.782745,103.601807 
	C211.096069,96.510574 225.055038,92.097008 240.258881,92.148521 
	C241.885086,92.154037 243.511322,92.149269 245.130463,92.149269 
	C245.256424,78.985817 248.489777,73.477547 256.489624,73.359436 
	C249.406815,79.163948 247.814148,84.440903 251.565735,91.101913 
	C254.807175,79.574265 256.620026,77.795410 264.957306,77.961548 
M212.500000,152.921280 
	C224.811081,152.921280 237.122162,152.921280 249.433243,152.921280 
	C249.460526,152.487549 249.487793,152.053818 249.515076,151.620087 
	C248.305496,151.377441 247.085892,151.176147 245.887909,150.885696 
	C235.408661,148.344894 224.676666,146.531036 214.529465,143.025696 
	C204.531799,139.572006 203.957550,132.919098 212.795532,126.863106 
	C218.927811,122.661125 225.760696,119.422852 232.466766,116.133659 
	C239.035172,112.911995 245.894241,110.285789 252.496628,107.128319 
	C253.926880,106.444336 254.806793,104.609634 255.940201,103.304955 
	C254.384613,102.263962 252.939438,100.942726 251.237854,100.272270 
	C249.920380,99.753166 248.239227,99.787315 246.793564,100.024811 
	C238.942688,101.314568 230.896530,102.009750 223.319580,104.261948 
	C200.055344,111.177101 182.330688,125.162460 171.452316,147.206818 
	C170.687683,148.756302 170.221954,150.453293 169.305481,152.921249 
	C183.968323,152.921249 197.734161,152.921249 212.500000,152.921280 
M283.013702,131.612167 
	C284.011780,136.960358 285.218506,142.280289 285.947662,147.664902 
	C286.639069,152.770493 288.703583,155.634521 292.173492,154.935913 
	C297.164856,153.931000 295.988647,149.929749 295.896149,146.552231 
	C295.878662,145.913818 295.620850,145.245895 295.338806,144.656235 
	C291.495605,136.621841 287.751099,128.535812 283.676727,120.619774 
	C282.721008,118.762962 280.629883,117.490570 279.061127,115.949310 
	C278.614899,116.213730 278.168701,116.478149 277.722473,116.742577 
	C279.420532,121.437035 281.118622,126.131485 283.013702,131.612167 
z"/>
<path fill="#1A4039" opacity="1.000000" stroke="none" 
	d="
M208.000000,168.964569 
	C234.656036,168.965439 260.812103,168.982330 286.968048,168.937103 
	C289.107361,168.933380 291.325989,168.795593 293.372040,168.229538 
	C308.497650,164.044815 319.862762,170.984863 330.271667,180.640259 
	C331.023865,181.337997 331.531311,183.468903 331.060608,184.052155 
	C330.280121,185.019196 328.622559,185.716171 327.315369,185.748322 
	C319.655914,185.936737 311.990875,185.935715 304.327789,185.931946 
	C253.181900,185.906738 202.035995,185.866669 150.890106,185.825882 
	C143.549301,185.820038 140.397659,183.707077 140.413788,178.850571 
	C140.431366,173.552414 145.370605,169.026489 151.523056,169.002075 
	C170.181778,168.927994 188.840988,168.968567 208.000000,168.964569 
z"/>
<path fill="#244740" opacity="1.000000" stroke="none" 
	d="
M167.583191,205.184830 
	C169.865723,205.204071 171.275253,205.311935 170.355835,202.488113 
	C169.367645,199.453079 169.183990,196.156082 168.577576,192.546631 
	C172.415390,192.546631 175.336212,192.546631 178.490402,192.546631 
	C179.163162,197.265121 180.465530,201.491348 186.081696,202.203766 
	C191.447098,202.884369 195.825363,200.516983 198.921600,194.675125 
	C201.444138,189.915741 205.398712,193.321716 208.529419,192.246582 
	C208.931961,192.545624 209.334518,192.844666 209.737076,193.143707 
	C207.496399,197.339096 205.255722,201.534485 202.838898,206.059708 
	C206.879410,206.762299 211.000259,207.478867 215.121109,208.195435 
	C215.087494,208.855591 215.053864,209.515732 215.020248,210.175888 
	C183.496918,213.980392 151.943542,213.689255 120.312126,209.271011 
	C135.676254,204.956512 151.448242,205.573013 167.583191,205.184830 
z"/>
<path fill="#244841" opacity="1.000000" stroke="none" 
	d="
M289.522247,192.259644 
	C290.591370,192.868317 291.736298,193.415482 291.805969,194.076035 
	C292.261383,198.394547 294.263428,201.324463 298.670685,202.092117 
	C303.563232,202.944290 308.242371,201.450470 310.319092,197.172424 
	C313.010132,191.628876 316.875916,191.614380 322.867706,192.873749 
	C320.558044,197.253784 318.403412,201.339813 316.001495,205.894836 
	C320.241302,206.654587 324.733093,207.459488 329.224854,208.264374 
	C329.171906,208.897598 329.118958,209.530807 329.066010,210.164032 
	C297.525635,213.976913 265.969055,213.700912 234.347321,209.267044 
	C250.523560,204.752884 267.169312,205.725220 283.581421,205.035126 
	C282.914978,200.889816 282.295502,197.036453 281.526093,192.250595 
	C284.600220,192.250595 286.850464,192.250595 289.522247,192.259644 
z"/>
<path fill="#1C413A" opacity="1.000000" stroke="none" 
	d="
M250.761688,268.938477 
	C247.870056,268.206116 245.383636,267.436127 242.371399,266.503326 
	C242.222794,269.100372 242.076355,271.659363 241.909134,274.581665 
	C238.101990,274.581665 234.386826,274.581665 230.345551,274.581665 
	C230.345551,264.368164 230.345551,254.280914 230.345551,243.137161 
	C234.322815,243.508240 238.285065,243.877914 242.247299,244.247589 
	C251.648880,241.381714 256.496490,242.449539 259.074768,249.209885 
	C262.273041,257.595734 258.735748,266.403748 250.761688,268.938477 
M247.863251,257.190887 
	C247.408417,254.155701 249.056580,250.290726 244.570648,248.846085 
	C243.700485,251.812790 242.401779,254.741531 242.134140,257.761627 
	C241.992294,259.362396 243.641510,261.121887 244.482193,262.809723 
	C245.590637,261.211426 246.699066,259.613129 247.863251,257.190887 
z"/>
<path fill="#1E433C" opacity="1.000000" stroke="none" 
	d="
M62.758163,236.744812 
	C67.196861,236.151154 68.971725,238.077164 70.059387,241.889343 
	C72.547447,250.609863 75.499931,259.197876 78.552139,268.741211 
	C74.876259,268.741211 71.958572,268.857300 69.059280,268.677155 
	C68.067421,268.615570 66.334038,267.886627 66.281136,267.334137 
	C65.902412,263.378510 63.240639,263.711487 60.496769,263.809052 
	C57.870472,263.902496 55.112999,263.308044 54.472431,267.228455 
	C54.354343,267.951172 52.165337,268.663757 50.872456,268.795715 
	C48.434406,269.044525 45.952904,268.867523 42.686115,268.867523 
	C44.868904,262.071991 46.920391,255.685287 48.971828,249.298584 
	C49.327030,248.192749 49.677776,247.085464 50.037865,245.981232 
	C52.915958,237.155273 52.916489,237.155441 62.758163,236.744812 
M61.840614,244.519699 
	C61.008709,244.584885 59.516026,244.472900 59.443924,244.741791 
	C58.346817,248.833557 57.435570,252.975143 56.408485,257.418396 
	C59.438614,257.418396 61.645611,257.418396 64.532433,257.418396 
	C63.637196,253.069122 62.842686,249.209229 61.840614,244.519699 
z"/>
<path fill="#1D423B" opacity="1.000000" stroke="none" 
	d="
M164.980713,242.176529 
	C165.040482,240.394058 165.102997,239.091309 165.189438,237.289612 
	C172.924637,237.289612 180.485184,237.289612 188.409882,237.289612 
	C188.409882,239.275558 188.409882,241.339615 188.409882,243.749725 
	C184.543259,244.127060 180.702927,244.380173 176.930634,245.028992 
	C176.476151,245.107193 176.390121,247.327606 176.019226,249.100494 
	C179.976654,249.100494 183.389740,249.100494 187.259125,249.100494 
	C187.478119,251.223892 187.655457,252.943497 187.904861,255.361816 
	C184.804916,255.361816 182.157547,255.088394 179.614120,255.483749 
	C178.443008,255.665787 177.475479,257.157379 176.415649,258.055176 
	C177.426285,259.012024 178.346710,260.645020 179.465134,260.794220 
	C182.388504,261.184357 185.398438,260.925690 188.753708,260.925690 
	C188.753708,263.480957 188.753708,265.704285 188.753708,268.411194 
	C181.131577,268.411194 173.518341,268.411194 164.983459,268.411194 
	C164.983459,260.094238 164.983459,251.375229 164.980713,242.176529 
z"/>
<path fill="#1C413A" opacity="1.000000" stroke="none" 
	d="
M38.377266,236.970856 
	C39.060486,239.305664 39.323277,241.497009 39.491325,242.898300 
	C35.584740,246.614929 28.335325,240.137634 26.821892,249.084198 
	C30.873209,249.084198 34.272758,249.084198 38.072124,249.084198 
	C38.275524,251.236206 38.439293,252.968918 38.664165,255.348068 
	C35.580280,255.348068 32.933670,255.072342 30.393213,255.471771 
	C29.234127,255.654022 28.284517,257.168518 27.239899,258.078766 
	C28.251530,259.033203 29.173325,260.661865 30.292265,260.810974 
	C33.214020,261.200287 36.222057,260.942108 39.611626,260.942108 
	C39.611626,263.448914 39.611626,265.658386 39.611626,268.376740 
	C31.936680,268.376740 24.216850,268.376740 16.175159,268.376740 
	C16.175159,258.278748 16.175159,248.062668 16.175159,236.827408 
	C23.466278,236.827408 30.711557,236.827408 38.377266,236.970856 
z"/>
<path fill="#244740" opacity="1.000000" stroke="none" 
	d="
M125.195663,264.167419 
	C126.454750,263.410919 127.295609,262.636047 128.136475,261.861145 
	C127.283897,261.186279 126.519020,260.130402 125.561821,259.910095 
	C122.980583,259.315948 120.307007,259.137878 117.689064,258.684967 
	C113.407333,257.944183 109.368195,256.777771 109.093475,251.376297 
	C108.876991,247.120056 111.592163,244.329224 117.717384,243.567215 
	C122.443611,242.979248 127.333069,242.960297 132.065186,243.472122 
	C134.478012,243.733093 136.704300,245.718689 139.014908,246.924728 
	C138.774719,247.673813 138.534531,248.422897 138.294342,249.171982 
	C134.406128,248.609406 130.528168,247.948151 126.623657,247.542023 
	C125.390213,247.413712 124.085785,247.967804 122.813850,248.209595 
	C123.752609,249.286545 124.524292,251.025131 125.662437,251.312546 
	C128.697464,252.078995 131.946838,251.971542 135.007538,252.666962 
	C140.338181,253.878113 142.638443,258.560516 140.029327,262.824951 
	C136.482651,268.621796 130.472626,269.124512 124.616440,268.988129 
	C118.931618,268.855713 112.972008,268.610687 108.693878,262.132233 
	C114.765060,261.683807 119.986374,260.636200 125.195663,264.167419 
z"/>
<path fill="#234740" opacity="1.000000" stroke="none" 
	d="
M383.053040,243.014893 
	C387.126953,243.373138 390.635803,243.952332 393.133636,249.279602 
	C388.273499,248.640320 384.512909,248.031555 380.727936,247.708542 
	C379.369385,247.592590 377.952026,248.165451 376.561523,248.423950 
	C377.602020,249.441833 378.493591,251.052673 379.712830,251.358887 
	C382.594757,252.082703 385.683807,251.951309 388.596680,252.588455 
	C395.019928,253.993484 396.845154,259.883301 392.486938,264.678711 
	C387.123199,270.580383 369.413361,270.556641 364.164642,264.598328 
	C363.675720,264.043274 363.528534,263.187195 362.509125,260.799713 
	C368.153931,261.903137 372.628143,262.849731 377.133179,263.615021 
	C378.504913,263.848022 379.976196,263.677063 381.367096,263.464020 
	C381.650848,263.420593 382.106415,261.992645 381.923126,261.828735 
	C381.003662,261.006439 379.979675,260.026093 378.842957,259.773285 
	C375.438538,259.016113 371.925415,258.741486 368.528564,257.958252 
	C365.109528,257.169891 363.005066,254.983719 362.962677,251.249939 
	C362.920410,247.528305 364.965088,245.007965 368.336426,244.383484 
	C373.029877,243.514160 377.864380,243.406174 383.053040,243.014893 
z"/>
<path fill="#22463F" opacity="1.000000" stroke="none" 
	d="
M339.266907,269.029053 
	C334.137177,267.920868 328.836243,268.005798 326.333862,262.895142 
	C326.488525,262.273407 326.643188,261.651703 326.797852,261.029968 
	C331.275452,261.903778 335.741394,262.846100 340.237610,263.610229 
	C341.612335,263.843903 343.084564,263.684540 344.478241,263.477295 
	C344.766174,263.434448 345.214966,261.973969 345.060272,261.854980 
	C343.953186,261.003265 342.791687,259.969727 341.491974,259.671387 
	C338.417847,258.965759 335.226471,258.780151 332.139771,258.117523 
	C328.527557,257.342133 326.092865,255.184021 326.063171,251.253326 
	C326.033844,247.365356 328.336426,244.638489 331.935394,244.248779 
	C337.985809,243.593613 344.135986,243.463379 350.217773,243.725403 
	C352.161133,243.809128 354.020874,245.834305 355.918854,246.971176 
	C355.753784,247.622757 355.588715,248.274353 355.423676,248.925934 
	C351.681183,248.588852 347.939148,248.246964 344.196045,247.917236 
	C342.846649,247.798386 341.492218,247.640442 340.146881,247.688980 
	C339.970551,247.695343 339.533722,249.225723 339.730133,249.374741 
	C340.854156,250.227585 342.056488,251.237564 343.375793,251.517456 
	C345.967834,252.067383 348.911591,251.592117 351.231384,252.620361 
	C353.703644,253.716202 357.074402,255.829407 357.406281,257.918854 
	C357.798096,260.385498 356.035767,264.777069 353.997772,265.720001 
	C349.650909,267.731232 344.523499,268.055420 339.266907,269.029053 
z"/>
<path fill="#254842" opacity="1.000000" stroke="none" 
	d="
M118.000168,90.993500 
	C133.310974,90.994949 148.121796,90.997208 162.932602,90.999512 
	C163.431854,90.999588 163.931549,91.014282 164.430283,90.998314 
	C167.482925,90.900597 170.513443,91.294594 170.463348,95.158730 
	C170.416351,98.784515 167.458969,98.945953 164.631195,98.928017 
	C158.141296,98.886864 151.650986,98.912315 145.160843,98.912140 
	C130.017075,98.911720 114.873260,98.895119 99.729553,98.926674 
	C96.728058,98.932930 93.663094,98.887405 93.736916,94.845665 
	C93.804268,91.158188 96.728294,90.992363 99.527138,90.993355 
	C105.518150,90.995483 111.509163,90.994194 118.000168,90.993500 
z"/>
<path fill="#1E433B" opacity="1.000000" stroke="none" 
	d="
M207.501221,259.926819 
	C206.939407,262.912354 206.470322,265.505066 205.975754,268.238586 
	C201.880783,268.238586 198.119949,268.238586 193.693039,268.238586 
	C196.163406,260.093994 201.549561,252.315704 193.914642,243.635284 
	C199.238983,243.635284 202.968414,243.635284 207.150253,243.635284 
	C207.704224,246.325653 208.286453,249.153259 208.868668,251.980865 
	C209.209549,251.995926 209.550415,252.010986 209.891281,252.026062 
	C210.618362,249.258057 211.345428,246.490067 212.122971,243.529938 
	C215.995789,243.529938 219.736526,243.529938 224.884338,243.529938 
	C217.490128,251.813736 220.194870,259.654266 224.863358,267.952484 
	C220.224548,267.952484 216.378311,267.952484 212.113297,267.952484 
	C211.264038,264.592072 210.346497,260.961456 209.102783,256.040131 
	C208.258865,257.994263 207.926407,258.764099 207.501221,259.926819 
z"/>
<path fill="#21453D" opacity="1.000000" stroke="none" 
	d="
M301.419373,243.459854 
	C312.112640,241.260910 320.133698,246.268066 320.803864,255.926849 
	C315.273773,255.926849 309.767639,255.926849 303.337860,255.926849 
	C304.209503,258.887970 304.805939,260.914307 305.782043,264.230408 
	C310.126984,257.444122 315.421509,259.624237 320.471893,259.749023 
	C319.199463,266.169495 314.889435,268.918427 306.582428,268.912140 
	C298.382172,268.905945 292.995667,265.281952 291.888031,259.025879 
	C290.541656,251.421509 293.324310,246.729630 301.419373,243.459854 
M306.567047,253.936310 
	C307.704681,253.365646 308.842316,252.794968 309.979919,252.224274 
	C309.174622,251.107162 308.542816,249.741379 307.476929,248.997803 
	C307.062317,248.708588 304.976837,249.705551 304.872101,250.323410 
	C304.682861,251.439697 305.410553,252.711411 306.567047,253.936310 
z"/>
<path fill="#21463E" opacity="1.000000" stroke="none" 
	d="
M85.462204,267.220245 
	C85.445488,262.650696 85.553894,258.502228 85.665443,254.353806 
	C85.882202,246.293137 85.882935,246.293152 78.248611,245.029526 
	C78.248611,242.694763 78.248611,240.304657 78.248611,237.578461 
	C87.138268,237.578461 95.882568,237.578461 105.004379,237.578461 
	C105.004379,239.931961 105.004379,242.311783 105.004379,244.985992 
	C102.797684,245.102158 100.691521,245.213028 98.045418,245.352310 
	C98.045418,252.767853 98.045418,260.145203 98.045418,268.637177 
	C93.507126,268.274353 89.547935,267.957855 85.462204,267.220245 
z"/>
<path fill="#1E433C" opacity="1.000000" stroke="none" 
	d="
M279.955688,258.593872 
	C279.653839,261.966736 279.447449,264.916321 279.221405,268.146484 
	C274.641296,268.146484 270.265167,268.146484 265.566437,268.146484 
	C265.566437,260.005219 265.566437,252.100937 265.566437,244.178711 
	C272.679535,241.942627 274.647278,242.724106 277.164795,248.360413 
	C279.960602,246.231323 282.889038,244.001251 286.916321,240.934402 
	C286.916321,246.273788 286.916321,249.687714 286.916321,251.837418 
	C284.137451,254.400955 282.094299,256.285797 279.955688,258.593872 
z"/>
<path fill="#24463F" opacity="1.000000" stroke="none" 
	d="
M133.384064,162.418915 
	C131.794495,162.339142 130.254654,162.696503 129.559143,162.088333 
	C128.206146,160.905228 126.353035,159.057266 126.523102,157.714737 
	C126.695412,156.354492 128.942459,154.458771 130.490952,154.231842 
	C134.078186,153.706131 137.857193,153.642685 141.426010,154.216080 
	C143.063278,154.479141 144.388763,156.682648 145.855637,158.006195 
	C144.339874,159.477768 143.054337,161.651642 141.250076,162.243118 
	C138.994888,162.982407 136.313004,162.420135 133.384064,162.418915 
z"/>
<path fill="#22453E" opacity="1.000000" stroke="none" 
	d="
M90.501007,114.310211 
	C87.256378,114.281807 84.305092,114.757278 81.683632,114.035271 
	C80.124657,113.605904 78.333321,111.407219 78.085236,109.784096 
	C77.929497,108.765190 80.283661,106.568825 81.790314,106.260071 
	C84.651947,105.673645 87.713554,106.062263 90.692101,106.047272 
	C93.567955,106.032791 96.824638,105.865662 97.082062,109.767250 
	C97.360641,113.989403 94.093590,114.278389 90.501007,114.310211 
z"/>
<path fill="#244841" opacity="1.000000" stroke="none" 
	d="
M190.989288,90.827171 
	C193.434280,90.893860 195.665100,90.423874 197.325180,91.190247 
	C198.792114,91.867455 200.362747,93.863167 200.485260,95.389320 
	C200.572968,96.481628 198.444260,98.642029 197.130142,98.791313 
	C193.043152,99.255585 188.833954,99.314529 184.756897,98.825035 
	C183.368149,98.658295 181.257996,96.405640 181.247574,95.092041 
	C181.236755,93.733101 183.131317,91.778412 184.638916,91.141937 
	C186.342194,90.422867 188.542679,90.881577 190.989288,90.827171 
z"/>
<path fill="#F1F2F2" opacity="1.000000" stroke="none" 
	d="
M67.163040,302.850098 
	C65.693268,301.160828 63.232323,299.740479 63.315563,298.489441 
	C63.481766,295.991547 64.484505,292.168060 66.170807,291.503632 
	C68.258507,290.681030 72.336395,291.676819 73.848541,293.391479 
	C76.061295,295.900574 76.080856,299.760742 72.435097,301.931061 
	C70.991524,302.790405 69.041817,302.799469 67.163040,302.850098 
z"/>
<path fill="#EFF1F1" opacity="1.000000" stroke="none" 
	d="
M111.963051,289.762482 
	C111.963051,287.112549 111.963051,284.462616 111.963051,280.764496 
	C113.186714,281.508698 115.486244,282.256653 115.488327,283.010925 
	C115.505699,289.296539 115.099762,295.583344 114.195190,301.658661 
	C111.953827,301.219116 109.965240,301.489868 108.820686,300.633087 
	C107.459373,299.614044 105.824799,297.389313 106.126617,296.118896 
	C106.499786,294.548065 108.532570,292.829193 110.222061,292.232513 
	C113.228676,291.170593 113.346153,291.503204 111.963051,289.762482 
z"/>
<path fill="#95B971" opacity="1.000000" stroke="none" 
	d="
M265.013733,77.592819 
	C256.620026,77.795410 254.807175,79.574265 251.565735,91.101913 
	C247.814148,84.440903 249.406815,79.163948 256.886505,73.399445 
	C260.862183,72.122749 263.568451,73.500298 265.013733,77.592819 
z"/>
<path fill="#9EA6A4" opacity="1.000000" stroke="none" 
	d="
M331.971069,296.979736 
	C332.839386,298.360138 333.480255,300.030884 334.688477,300.977386 
	C335.168732,301.353607 337.583527,300.400665 337.922211,299.567078 
	C338.528107,298.076019 338.827271,295.916656 338.160431,294.584320 
	C337.246582,292.758423 334.935913,291.653778 333.925537,289.847534 
	C332.999908,288.192871 332.673401,285.995728 332.795319,284.083038 
	C332.834106,283.474030 335.669556,282.215332 336.328949,282.641327 
	C337.828888,283.610382 338.773132,285.439575 339.943237,286.919159 
	C339.485138,287.281860 339.027069,287.644562 338.569000,288.007233 
	C337.543396,286.929504 336.517792,285.851776 335.492188,284.774048 
	C335.032227,284.971313 334.572296,285.168579 334.112366,285.365845 
	C334.715637,286.580444 335.196808,287.877258 335.947754,288.992371 
	C337.491364,291.284546 339.786530,293.265869 340.665802,295.764526 
	C341.989532,299.526367 339.618866,302.637146 336.194702,303.296753 
	C334.458282,303.631195 332.096588,301.058533 330.177307,299.591278 
	C329.980713,299.441010 330.881683,297.855103 331.639648,296.971649 
	C332.005951,297.007935 331.971069,296.979736 331.971069,296.979736 
z"/>
<path fill="#F0F2F2" opacity="1.000000" stroke="none" 
	d="
M92.069481,292.933472 
	C95.932236,292.883942 95.569969,296.048218 94.849068,297.840576 
	C93.947685,300.081635 91.967117,302.115967 89.960876,303.553558 
	C89.318253,304.014038 86.712692,302.639679 85.724548,301.487793 
	C84.449066,300.000916 83.895714,297.894531 82.679169,295.305359 
	C84.187073,295.599976 85.571304,295.620239 85.635880,295.922485 
	C86.173668,298.439270 87.212624,300.976135 90.039101,299.680511 
	C91.293449,299.105530 91.357803,295.934509 91.980354,293.472473 
	C91.998405,293.003082 92.069481,292.933472 92.069481,292.933472 
z"/>
<path fill="#A3ACAA" opacity="1.000000" stroke="none" 
	d="
M111.581436,289.861176 
	C113.346153,291.503204 113.228676,291.170593 110.222061,292.232513 
	C108.532570,292.829193 106.499786,294.548065 106.126617,296.118896 
	C105.824799,297.389313 107.459373,299.614044 108.820686,300.633087 
	C109.965240,301.489868 111.953827,301.219116 113.847046,301.732117 
	C111.397781,301.858612 108.093018,302.568909 106.128403,301.263031 
	C104.603348,300.249298 103.568817,296.069763 104.448280,294.467773 
	C105.603310,292.363770 108.851685,291.408905 111.581436,289.861176 
z"/>
<path fill="#929B98" opacity="1.000000" stroke="none" 
	d="
M143.684662,291.132629 
	C143.681473,295.151428 143.681473,298.702118 143.681473,302.559692 
	C143.389496,302.559692 142.361511,302.559692 141.506958,302.559692 
	C141.506958,296.083282 141.506958,289.910645 141.506958,283.359497 
	C142.223190,283.298767 143.238663,283.212677 144.385834,283.115417 
	C144.131638,285.864655 143.909744,288.264587 143.684662,291.132629 
z"/>
<path fill="#98A1A0" opacity="1.000000" stroke="none" 
	d="
M243.447723,288.888367 
	C244.959366,291.390961 246.470993,293.893524 248.466064,297.196442 
	C248.956268,294.534882 249.302444,292.655304 249.648621,290.775726 
	C249.894302,290.806519 250.139999,290.837311 250.385681,290.868103 
	C250.385681,294.269836 250.385681,297.671600 250.385681,301.073334 
	C250.039764,301.168945 249.693863,301.264557 249.347946,301.360168 
	C246.838196,297.911316 244.328445,294.462433 241.475525,290.752563 
	C241.904129,289.957153 242.675919,289.422760 243.447723,288.888367 
z"/>
<path fill="#A5AEAB" opacity="1.000000" stroke="none" 
	d="
M155.898300,291.377106 
	C159.597046,290.159027 163.376266,288.451080 166.419724,294.144928 
	C154.289948,287.819000 160.198502,300.339233 155.761917,303.199646 
	C155.761917,298.886932 155.761917,295.345337 155.898300,291.377106 
z"/>
<path fill="#99A29F" opacity="1.000000" stroke="none" 
	d="
M226.108826,285.813324 
	C226.005875,291.369263 226.005875,296.508881 226.005875,301.648468 
	C225.406494,301.658813 224.807114,301.669128 224.207733,301.679443 
	C224.207733,295.675598 224.207733,289.671753 224.207733,282.257080 
	C225.081879,283.626678 225.646820,284.511810 226.108826,285.813324 
z"/>
<path fill="#899492" opacity="1.000000" stroke="none" 
	d="
M243.336700,288.533905 
	C242.675919,289.422760 241.904129,289.957153 241.144470,290.878082 
	C241.156586,294.857849 241.156586,298.451080 241.156586,302.779755 
	C240.271194,302.320068 238.382477,301.717499 238.422882,301.303070 
	C238.940308,295.996368 239.733688,290.716614 240.636795,284.116364 
	C241.952408,286.181122 242.589035,287.180267 243.336700,288.533905 
z"/>
<path fill="#9CA4A3" opacity="1.000000" stroke="none" 
	d="
M270.000427,302.816101 
	C267.927917,300.934296 266.222168,299.050232 264.516388,297.166138 
	C264.900330,296.852264 265.284241,296.538391 265.668152,296.224518 
	C270.147583,301.742920 270.147583,301.742920 274.640228,295.291016 
	C274.895325,299.150665 273.841309,301.659821 270.000427,302.816101 
z"/>
<path fill="#A0A9A6" opacity="1.000000" stroke="none" 
	d="
M293.017944,300.694336 
	C292.575623,295.578033 292.575623,290.477936 292.575623,285.377808 
	C292.870483,285.371033 293.165375,285.364227 293.460236,285.357452 
	C293.460236,290.475128 293.460236,295.592834 293.017944,300.694336 
z"/>
<path fill="#F0F2F2" opacity="1.000000" stroke="none" 
	d="
M91.963921,293.038940 
	C89.762352,293.074768 87.595276,293.074768 85.516266,293.074768 
	C86.830467,290.281769 89.920174,289.777405 92.044876,292.570496 
	C92.069481,292.933472 91.998405,293.003082 91.963921,293.038940 
z"/>
<path fill="#C7D1CF" opacity="1.000000" stroke="none" 
	d="
M198.641113,289.133972 
	C197.214478,289.512207 195.881058,289.587067 194.547638,289.661926 
	C194.561096,289.174194 194.574539,288.686462 194.587997,288.198700 
	C195.970108,288.409332 197.352234,288.619965 198.641113,289.133972 
z"/>
<path fill="#C7D1CF" opacity="1.000000" stroke="none" 
	d="
M199.426941,291.527740 
	C199.383331,291.453827 199.566147,291.427032 199.566147,291.427032 
	C199.566147,291.427032 199.470551,291.601654 199.426941,291.527740 
z"/>
<path fill="#9EA6A4" opacity="1.000000" stroke="none" 
	d="
M332.021484,297.024231 
	C332.115173,296.984009 332.193329,296.927460 332.121277,296.925354 
	C331.971069,296.979736 332.005951,297.007935 332.021484,297.024231 
z"/>
<path fill="#ACCE6C" opacity="1.000000" stroke="none" 
	d="
M212.000000,152.921265 
	C197.734161,152.921249 183.968323,152.921249 169.305481,152.921249 
	C170.221954,150.453293 170.687683,148.756302 171.452316,147.206818 
	C182.330688,125.162460 200.055344,111.177101 223.319580,104.261948 
	C230.896530,102.009750 238.942688,101.314568 246.793564,100.024811 
	C248.239227,99.787315 249.920380,99.753166 251.237854,100.272270 
	C252.939438,100.942726 254.384613,102.263962 255.940201,103.304955 
	C254.806793,104.609634 253.926880,106.444336 252.496628,107.128319 
	C245.894241,110.285789 239.035172,112.911995 232.466766,116.133659 
	C225.760696,119.422852 218.927811,122.661125 212.795532,126.863106 
	C203.957550,132.919098 204.531799,139.572006 214.529465,143.025696 
	C224.676666,146.531036 235.408661,148.344894 245.887909,150.885696 
	C247.085892,151.176147 248.305496,151.377441 249.515076,151.620087 
	C249.487793,152.053818 249.460526,152.487549 249.433243,152.921280 
	C237.122162,152.921280 224.811081,152.921280 212.000000,152.921265 
z"/>
<path fill="#1C725F" opacity="1.000000" stroke="none" 
	d="
M282.915192,131.219055 
	C281.118622,126.131485 279.420532,121.437035 277.722473,116.742577 
	C278.168701,116.478149 278.614899,116.213730 279.061127,115.949310 
	C280.629883,117.490570 282.721008,118.762962 283.676727,120.619774 
	C287.751099,128.535812 291.495605,136.621841 295.338806,144.656235 
	C295.620850,145.245895 295.878662,145.913818 295.896149,146.552231 
	C295.988647,149.929749 297.164856,153.931000 292.173492,154.935913 
	C288.703583,155.634521 286.639069,152.770493 285.947662,147.664902 
	C285.218506,142.280289 284.011780,136.960358 282.915192,131.219055 
z"/>
<path fill="#E6EBEA" opacity="1.000000" stroke="none" 
	d="
M247.835388,257.602844 
	C246.699066,259.613129 245.590637,261.211426 244.482178,262.809723 
	C243.641510,261.121887 241.992294,259.362396 242.134140,257.761627 
	C242.401779,254.741531 243.700485,251.812790 244.570648,248.846085 
	C249.056580,250.290726 247.408417,254.155701 247.835388,257.602844 
z"/>
<path fill="#E4E9E8" opacity="1.000000" stroke="none" 
	d="
M61.944393,244.934509 
	C62.842686,249.209229 63.637196,253.069122 64.532433,257.418396 
	C61.645611,257.418396 59.438614,257.418396 56.408485,257.418396 
	C57.435570,252.975143 58.346817,248.833557 59.443924,244.741791 
	C59.516026,244.472900 61.008709,244.584885 61.944393,244.934509 
z"/>
<path fill="#D6DDDC" opacity="1.000000" stroke="none" 
	d="
M306.161194,253.927261 
	C305.410553,252.711411 304.682861,251.439697 304.872101,250.323410 
	C304.976837,249.705551 307.062317,248.708588 307.476929,248.997803 
	C308.542816,249.741379 309.174622,251.107162 309.979919,252.224274 
	C308.842316,252.794968 307.704681,253.365646 306.161194,253.927261 
z"/>
</svg>